<?xml version="1.0" standalone="no"?><!DOCTYPE svg PUBLIC "-//W3C//DTD SVG 1.1//EN" "http://www.w3.org/Graphics/SVG/1.1/DTD/svg11.dtd"><svg t="1519917245503" class="icon" style="" viewBox="0 0 1024 1024" version="1.1" xmlns="http://www.w3.org/2000/svg" p-id="1519" xmlns:xlink="http://www.w3.org/1999/xlink" width="200" height="200"><defs><style type="text/css"></style></defs><path d="M961.981 188.212c0-63.559-51.716-115.276-115.302-115.276h-666.423c-63.57 0-115.291 51.716-115.291 115.276v434.003c0 63.559 51.72 115.19 115.291 115.19h110.486v170.356c0 18.316 10.91 34.678 27.795 41.716 16.955 7.035 36.273 3.163 49.242-9.808l202.28-202.265h276.617c63.585 0 115.302-51.631 115.302-115.19v-434.002zM899.794 622.215c0 29.22-23.823 53.017-53.115 53.017h-302.364l-9.112 9.157-182.286 182.256v-191.411h-172.659c-29.278 0-53.115-23.797-53.115-53.017v-434.003c0-29.223 23.838-53.104 53.115-53.104h666.422c29.292 0 53.115 23.881 53.115 53.104v434.003z" p-id="1520"></path></svg>